<svg version="1.1" viewBox="0 0 100 39" xmlns="http://www.w3.org/2000/svg">
 <path d="m12.69 20.387c-1.322 1.6291-2.1616 3.584-3.2142 5.3822-0.79574 1.3534-1.2531 2.4561-1.8045 3.6654-0.06266 0.1379-0.13158 0.2632-0.21303 0.3885 3.6278-0.7394 5.2569-3.2206 5.2569-7.7318 0-0.4136 0.025-1.3284-0.0251-1.7043z" fill="#f1c61a"/>
 <path d="m10.678 16.89c-1.2782-1.2782-2.8885-1.8108-5.0689-1.8108-0.54512 0-1.8797 0.0376-3.9975 0.1128v7.5313c0.05639-0.0063 0.11905-0.0063 0.1817-0.0063 0.50752 0.0063 0.98371 0.094 1.416 0.2569 0.401 0.1567 0.75188 0.3509 1.0714 0.5827v-6.0463c0.52632-0.0439 0.92732-0.069 1.2155-0.069 1.7732 0 3.0263 0.5702 3.7406 1.7106 0.58897-0.7832 0.92732-1.1028 1.2468-1.391 0.1943-0.1692 0.376-0.3321 0.5577-0.4887-0.1253-0.1316-0.2381-0.2569-0.3634-0.3822z" fill="#fff"/>
 <path d="m3.1661 30.042c-0.40101-0.896-0.92106-1.6166-1.5602-2.3496v2.4812l1.6416 0.0438c-0.03133-0.0564-0.05639-0.119-0.08145-0.1754z" fill="#f1c61a"/>
 <g fill="#fff">
  <path d="m23.31 26.815v-2.3434c0-2.1241-0.3885-3.5652-1.1654-4.3233-0.7832-0.7581-2.005-1.1404-3.6779-1.1404-1.2093 0-2.2557 0.2131-3.1329 0.6391l0.5514 1.9863c0.6516-0.3321 1.4536-0.495 2.4186-0.495 1.629 0 2.4436 0.6453 2.4436 1.9423-0.4136-0.1065-0.7644-0.1566-1.0652-0.1566-1.7481 0-3.1015 0.3571-4.0539 1.0714-0.9524 0.7206-1.4285 1.7105-1.4285 2.9762 0 1.084 0.3383 1.9236 1.0087 2.5125 0.6767 0.589 1.5978 0.8835 2.782 0.8835 0.6265 0 1.228-0.119 1.8045-0.3634 0.5764-0.2381 0.9837-0.5514 1.2155-0.9336 0.1003 0.3196 0.3008 0.6203 0.589 0.8897 0.2945 0.2757 0.6266 0.4136 0.9962 0.4136 0.3321 0 0.6329-0.0439 0.8835-0.1316 0.2631-0.0815 0.5012-0.3133 0.708-0.6767-0.5827-0.3759-0.8772-1.2907-0.8772-2.7506zm-2.5438-0.7832c0 1.5413-0.7645 2.3057-2.3058 2.3057-1.1341 0-1.7105-0.4887-1.7105-1.4724 0-1.3221 1.0087-1.9862 3.0325-1.9862 0.2131 0 0.5452 0.0438 0.9838 0.1316z"/>
  <path d="m33.185 30.167v-6.7481c0-0.6767-0.213-1.2156-0.6328-1.6291-0.4261-0.4073-0.9775-0.614-1.6604-0.614-0.4198 0-0.8459 0.1128-1.2782 0.3446-0.4324 0.2255-0.7394 0.4887-0.9211 0.7832v7.8634h-2.6065v-15.025l2.6065-0.614v5.3822c0.6642-0.6015 1.5727-0.9023 2.7319-0.9023 1.3721 0 2.4373 0.3823 3.1955 1.1404 0.7581 0.7581 1.1403 1.8484 1.1403 3.2707v6.7481z"/>
  <path d="m46.894 26.815v-2.3434c0-2.1241-0.3884-3.5652-1.1654-4.3233-0.7769-0.7581-1.9987-1.1404-3.6717-1.1404-1.2155 0-2.2619 0.2131-3.1453 0.6391l0.5513 1.9863c0.6517-0.3321 1.4537-0.495 2.4186-0.495 1.6291 0 2.4436 0.6453 2.4436 1.9423-0.4073-0.1065-0.7644-0.1566-1.0652-0.1566-1.7543 0-3.1015 0.3571-4.0538 1.0714-0.9524 0.7206-1.4286 1.7105-1.4286 2.9762 0 1.084 0.3383 1.9236 1.015 2.5125 0.6767 0.589 1.5978 0.8835 2.7757 0.8835 0.6266 0 1.2281-0.119 1.8045-0.3634 0.5765-0.2381 0.9837-0.5514 1.2156-0.9336 0.1002 0.3196 0.3007 0.6203 0.5889 0.8897 0.2945 0.2757 0.6266 0.4136 0.9963 0.4136 0.3321 0 0.6328-0.0439 0.8897-0.1316 0.2569-0.0815 0.495-0.3133 0.7018-0.6767-0.5765-0.3759-0.871-1.2907-0.871-2.7506zm-2.5438-0.7832c0 1.5413-0.7707 2.3057-2.3058 2.3057-1.1403 0-1.7105-0.4887-1.7105-1.4724 0-1.3221 1.0087-1.9862 3.0263-1.9862 0.2193 0 0.5514 0.0438 0.9837 0.1316v1.0213z"/>
  <path d="m58.122 20.524c-0.9837-1.0087-2.2744-1.5163-3.8784-1.5163-0.802 0-1.5477 0.2068-2.2306 0.6266v-5.1065l-2.5564 0.614v15.238h1.4411l0.5702-0.8082c0.7331 0.5388 1.604 0.8082 2.619 0.8082 1.6918 0 3.0326-0.5326 4.0226-1.604 0.9837-1.0714 1.4787-2.5188 1.4787-4.3546 0.0063-1.5852-0.4825-2.8822-1.4662-3.8973zm-1.9611 6.8046c-0.5138 0.5889-1.391 0.8771-2.6254 0.8771-0.6391 0-1.1466-0.2193-1.5225-0.6641v-5.7206c0.3947-0.426 0.9712-0.6391 1.7293-0.6391 2.1241 0 3.183 1.1091 3.183 3.3334 0.0062 1.2844-0.2506 2.2243-0.7644 2.8133z"/>
  <path d="m61.161 29.466 0.9148-2.03c0.7644 0.6015 1.629 0.9022 2.5939 0.9022 0.9963 0 1.4975-0.3571 1.4975-1.0651 0-0.4136-0.1503-0.7582-0.4511-1.0213-0.3007-0.2695-0.8835-0.5765-1.7481-0.9399-1.8922-0.7832-2.8384-1.8797-2.8384-3.2957 0-0.9461 0.3635-1.6855 1.084-2.2118 0.7206-0.5263 1.6479-0.7958 2.7757-0.7958 1.1403 0 2.2118 0.2569 3.2143 0.7645l-0.7331 1.9799c-0.5576-0.4762-1.3409-0.7143-2.3308-0.7143-0.896 0-1.3409 0.3572-1.3409 1.0652 0 0.2819 0.1504 0.5326 0.4386 0.7581 0.2945 0.2256 0.9211 0.5263 1.886 0.9023 0.9649 0.3759 1.6541 0.8396 2.0802 1.3784 0.426 0.5389 0.6328 1.1905 0.6328 1.9549 0 1.0151-0.3759 1.8171-1.1341 2.3998-0.7519 0.5827-1.7794 0.8772-3.0764 0.8772-0.7331 0-1.3158-0.0627-1.7607-0.1817-0.4511-0.1128-1.015-0.3572-1.7042-0.7269z"/>
  <path d="m77.972 30.167v-6.7481c0-0.6767-0.213-1.2156-0.6328-1.6291-0.4261-0.4073-0.9774-0.614-1.6604-0.614-0.4198 0-0.8521 0.1128-1.2782 0.3446-0.4323 0.2255-0.7393 0.4887-0.921 0.7832v7.8634h-2.6003v-15.025l2.6003-0.614v5.3822c0.6641-0.6015 1.5726-0.9023 2.7318-0.9023 1.3722 0 2.4373 0.3823 3.1955 1.1404 0.7581 0.7581 1.1341 1.8484 1.1341 3.2707v6.7481z"/>
  <path d="m82.583 19.215v2.099h1.3972v8.8597h2.5876v-10.959z"/>
  <path d="m88.83 19.215v2.099h1.4035v8.8597h2.5876v-10.959z"/>
  <path d="m96.236 15.142 2.5563-0.614v12.312c0 1.3471 0.401 2.1554 1.203 2.4123-0.3947 0.7456-1.0714 1.1216-2.0237 1.1216-1.1592 0-1.7356-0.802-1.7356-2.4123z"/>
  <path d="m90.572 14.44c-4.2043-3.1328-8.0577-5.6516-11.454-7.4812-4.2669-2.2556-8.6215-3.985-12.926-5.1504-4.6867-1.2594-9.3923-1.8672-13.998-1.8045-3.5151 0.050125-7.0176 0.47619-10.407 1.2657-0.119 0.03133-0.1566 0.12531-0.1441 0.2005 0.0188 0.08772 0.1003 0.16291 0.2318 0.14411 3.6592-0.6015 7.0364-0.87093 10.32-0.81454 4.5113 0.093985 9.0664 0.8396 13.553 2.218 4.1354 1.2657 8.2832 3.0827 12.318 5.4073 3.208 1.8796 6.9424 4.505 10.802 7.6002l0.0439 0.0313 0.0125-0.0501c0.1504-0.8145 0.7895-1.4035 1.6416-1.5038l0.0815-0.0062z"/>
  <path d="m17.408 14.453c-0.1315 0.0313-0.2506 0.0251-0.3195-0.0689-0.0815-0.1065-0.0188-0.2506 0.0689-0.3572 0.0501 0.0564 0.094 0.1066 0.1316 0.1692 0.0439 0.0815 0.0877 0.1692 0.119 0.2569z"/>
  <path d="m16.568 14.986c-0.1879 0.2882-0.5889 0.589-0.8584 0.8396-1.1904 1.0777-2.312 2.218-3.3458 3.4336-0.0313 0.0313-0.0564 0.0689-0.0815 0.1002-0.0062 0.0188-0.0188 0.0314-0.0313 0.0439-0.8459 1.0088-1.6228 2.1429-2.2932 3.2895 0 0 0 0.0062-0.00627 0.0062-0.08772 0.1567-0.1817 0.3133-0.26316 0.47-0.35714 0.6328-0.70175 1.2782-1.0589 1.911-0.0188 0.0439-0.03133 0.0752-0.05639 0.1065-0.4386 0.7832-0.84587 1.5852-1.2218 2.3935-0.25062 0.52-0.48872 1.0401-0.70801 1.5727-0.20051 0.4699-0.48873 0.7957-1.0464 0.9148-0.19423 0.0438-0.37594 0.119-0.57644 0.1817-0.03133 0.0125-0.06892 0.0188-0.10025 0.025-0.11278 0.0314-0.2005 0.0376-0.26316 0.0063-0.10025-0.0313-0.16917-0.1191-0.23809-0.2757-0.21304-0.4261-0.40727-0.8584-0.64537-1.2719-0.53884-0.9399-1.2155-1.7669-2.0614-2.4562-0.41353-0.3383-0.86466-0.6391-1.3659-0.9085-0.45113-0.2381-0.45739-0.3634-0.04386-0.6641 0.401-0.2883 0.83333-0.564 1.3408-0.6391 0.06892-0.0063 0.13158-0.0126 0.2005-0.0126 0.32582-0.0062 0.68296 0.0439 0.98998 0.1567 0.60776 0.2067 1.084 0.5576 1.51 0.9711 0.27569 0.2695 0.53885 0.564 0.78947 0.8647 0.05013 0.0689 0.10025 0.1316 0.18171 0.2318 0.13157-0.2318 0.23809-0.426 0.35087-0.614 0.33208-0.589 0.6391-1.1905 1.0088-1.7544 0.78321-1.203 1.8734-2.5063 2.9762-3.6779 0.53885-0.5765 1.084-1.1153 1.5914-1.604 0.1504-0.1442 0.3008-0.282 0.4386-0.4136 1.2845-1.1842 2.3434-2.0238 3.8534-3.0952 0.1942-0.1379 0.8145-0.6704 1.0401-0.3384 0.0313 0.0627 0.0313 0.1441-0.0063 0.2068z"/>
  <path d="m84.983 14.773h-0.0125c-0.8897-0.0126-1.6353 0.4636-1.9424 1.2406-1.0025-0.8396-3.1203-2.6191-5.4198-4.1604-2.0864-1.4098-4.2543-2.7193-6.5225-3.8722-4.5113-2.287-9.3421-3.6779-14.411-4.4612-2.0176-0.31328-4.0602-0.50125-6.1028-0.49499-6.1341-0.06265-12.588 1.1216-18.246 3.4273-1.3597 0.55765-2.6316 1.084-3.9474 1.7168-1.7857 0.84587-3.49 1.7544-5.1692 2.7632-1.7481 1.0526-3.4147 1.9988-5.1002 3.1454-0.1128 0.0752-0.4386 0.3258-0.708 0.3947-0.1316 0.0313-0.2506 0.0251-0.3196-0.0626-0.0313-0.0376-0.0376-0.0752-0.0376-0.1191 0-0.0814 0.0502-0.1629 0.1066-0.2381 0-0.0063 0.0062-0.0063 0.0062-0.0063 0.0313-0.0438 0.0689-0.0814 0.1065-0.1127 0.5201-0.4386 0.7394-0.5827 1.1153-0.8584 0.8083-0.589 1.6166-1.178 2.4436-1.7294 1.3659-0.921 2.7632-1.7982 4.1918-2.619 0.1127-0.06892 0.2318-0.13158 0.3446-0.2005 2.0927-1.178 4.2606-2.2368 6.4975-3.1579 5.7017-2.3559 12.387-3.5338 18.684-3.6529 5.7894-0.16917 11.717 0.93359 17.086 2.9449 4.6993 1.7544 9.0727 4.1541 13.152 6.9549 1.4473 0.9962 2.8508 2.0488 4.2042 3.1579z"/>
  <path d="m85.979 16.853c-0.0063 0.614-0.4637 1.0651-1.0714 1.0526-0.6015-0.0063-1.0715-0.4762-1.0589-1.0902 0.0062-0.6391 0.4887-1.0652 1.0902-1.0589 0.6077 0.0188 1.0463 0.4636 1.0401 1.0965z"/>
  <path d="m90.86 15.387c-0.5326-0.0063-0.9712 0.3195-1.0902 0.8208-0.0815 0.3383 0 0.6955 0.2318 0.9712 0.2193 0.2631 0.5263 0.4135 0.8459 0.4135h0.0438c0.589-0.0251 1.0213-0.4824 1.0339-1.0902 0.0125-0.6329-0.4386-1.1028-1.0652-1.1153z"/>
  <path d="m12.583 32.605c0.282-0.069 0.7018-0.1128 1.1153-0.1128 0.4323 0 0.8897 0.0877 1.1905 0.3321 0.2694 0.2067 0.4261 0.5075 0.4261 0.921 0 0.5514-0.2632 1.0025-0.5953 1.2594-0.3697 0.2945-0.9022 0.4386-1.4536 0.4386-0.1629 0-0.3133-0.0188-0.4323-0.0313l-0.3384 1.7544h-0.7832l0.8709-4.5614zm0.376 2.1491c0.1315 0.0251 0.2506 0.0438 0.4198 0.0438 0.6767 0 1.1278-0.4323 1.1278-0.9837 0-0.4949-0.3509-0.6767-0.8083-0.6767-0.2005 0-0.3509 0.0126-0.4448 0.0439l-0.2945 1.5727z"/>
  <path d="m18.661 35.124c0 1.1466-0.7895 2.124-1.9361 2.124-0.8459 0-1.3722-0.5827-1.3722-1.3847 0-1.1403 0.7895-2.1241 1.9361-2.1241 0.9022 0 1.3722 0.6517 1.3722 1.3848zm-2.4812 0.7205c0 0.4637 0.238 0.7832 0.6516 0.7832 0.6015 0 1.0025-0.8271 1.0025-1.4975 0-0.3446-0.1567-0.7707-0.6391-0.7707-0.6391 0-1.015 0.8584-1.015 1.485z"/>
  <path d="m20.008 33.814 0.0627 1.6354c0.0125 0.3947 0.0062 0.6641-0.0126 0.9899h0.0126c0.1065-0.2944 0.2443-0.6077 0.3947-0.9461l0.8146-1.6792h0.6704l0.1378 1.6354c0.0251 0.3884 0.0439 0.6955 0.0314 0.9899h0.0125c0.1002-0.3258 0.2068-0.6265 0.3446-0.9837l0.7205-1.6416h0.8146l-1.6479 3.3584h-0.7519l-0.1503-1.4599c-0.0251-0.3321-0.0439-0.6391-0.0376-0.9899h-0.0126c-0.1629 0.4072-0.2569 0.6578-0.3947 0.9586l-0.7519 1.4975h-0.7519l-0.3132-3.3584h0.8082v-0.0063z"/>
  <path d="m26.499 36.978c-0.3321 0.1754-0.7769 0.2694-1.1842 0.2694-0.9336 0-1.3784-0.5702-1.3784-1.391 0-1.015 0.7456-2.1178 1.9047-2.1178 0.6642 0 1.084 0.376 1.084 0.9462 0 0.8646-0.9023 1.1403-2.1993 1.109-0.0125 0.119 0.0126 0.3446 0.0878 0.4762 0.1315 0.2255 0.3696 0.3446 0.6892 0.3446 0.3759 0 0.6829-0.094 0.921-0.2193l0.0752 0.5827zm-0.7644-2.6379c-0.5013 0-0.8333 0.4512-0.9336 0.8522 0.8271 0.0062 1.3597-0.1003 1.3597-0.5075 0-0.2131-0.1755-0.3447-0.4261-0.3447z"/>
  <path d="m27.17 37.172 0.3947-2.0676c0.0877-0.4762 0.1379-0.99 0.1755-1.2908h0.6954c-0.0188 0.2256-0.0438 0.4637-0.0751 0.7018h0.0188c0.2255-0.4511 0.5952-0.777 1.0463-0.777 0.0627 0 0.1253 0.0063 0.1817 0.0063l-0.1566 0.7832c-0.0439-0.0063-0.094-0.0063-0.1504-0.0063-0.5702 0-0.9398 0.5765-1.0652 1.297l-0.2569 1.3534h-0.8082z"/>
  <path d="m32.164 36.978c-0.3321 0.1754-0.777 0.2694-1.1842 0.2694-0.9273 0-1.3785-0.5702-1.3785-1.391 0-1.015 0.7456-2.1178 1.9048-2.1178 0.6641 0 1.0839 0.376 1.0839 0.9462 0 0.8646-0.9022 1.1403-2.1992 1.109-0.0125 0.119 0.0125 0.3446 0.0877 0.4762 0.1316 0.2255 0.3697 0.3446 0.6892 0.3446 0.3822 0 0.683-0.094 0.9211-0.2193l0.0752 0.5827zm-0.7644-2.6379c-0.5013 0-0.8334 0.4512-0.9274 0.8522 0.8271 0.0062 1.3597-0.1003 1.3597-0.5075-0.0063-0.2131-0.1755-0.3447-0.4323-0.3447z"/>
  <path d="m36.625 32.279-0.7018 3.6967c-0.0751 0.3947-0.1315 0.8333-0.1503 1.1967h-0.7394l0.0689-0.5952h-0.0125c-0.2945 0.4574-0.7143 0.6704-1.1529 0.6704-0.6015 0-1.0213-0.4824-1.0213-1.2406 0-1.1842 0.8647-2.2682 2.0928-2.2682 0.1754 0 0.3696 0.0314 0.5137 0.094l0.2945-1.5601h0.8083v0.0063zm-1.2155 2.2117c-0.094-0.0752-0.2632-0.1315-0.4637-0.1315-0.6892 0-1.1967 0.7644-1.1967 1.5162 0 0.4073 0.1566 0.7206 0.5388 0.7206 0.3572 0 0.7895-0.3947 0.9211-1.0902l0.2005-1.0151z"/>
  <path d="m39.582 32.279-0.4135 2.0238 0.0125 0.0063c0.2695-0.3634 0.6642-0.5702 1.0965-0.5702 0.7143 0 1.0151 0.589 1.0151 1.1842 0 1.0589-0.7331 2.3246-2.1554 2.3246-0.7018 0-1.1216-0.2945-1.1216-0.9022 0-0.188 0.0251-0.3948 0.0689-0.5765l0.6955-3.49h0.802zm-0.708 3.5276c-0.025 0.1191-0.0501 0.2444-0.0438 0.401 0.0062 0.2757 0.1629 0.4261 0.4511 0.4261 0.7017 0 1.1654-0.9023 1.1654-1.5664 0-0.3634-0.1566-0.6767-0.5326-0.6767-0.4135 0-0.8396 0.426-0.9774 1.1027l-0.0627 0.3133z"/>
  <path d="m42.577 33.814 0.2631 1.6103c0.0627 0.3634 0.1003 0.6141 0.1316 0.8396h0.0125c0.0815-0.2067 0.163-0.4323 0.3259-0.802l0.7142-1.6541h0.8522l-1.2281 2.4749c-0.4073 0.8146-0.7769 1.4098-1.2281 1.8484-0.3884 0.3697-0.827 0.5388-1.0338 0.5764l-0.188-0.6892c0.1504-0.0564 0.3885-0.1378 0.5953-0.2945 0.2255-0.1566 0.4386-0.3947 0.5952-0.6704 0.0251-0.0501 0.0251-0.0877 0.0125-0.1504l-0.6704-3.0952h0.8459v0.0062z"/>
  <path d="m46.982 32.586c0.376-0.0627 0.7957-0.094 1.2281-0.094 0.7456 0 1.3283 0.188 1.7042 0.5514 0.3196 0.2882 0.5326 0.733 0.5326 1.3721 0 0.8772-0.3572 1.673-0.9461 2.1554-0.5389 0.4386-1.2218 0.6329-2.1742 0.6329-0.4887 0-0.9461-0.0314-1.203-0.0752l0.8584-4.5426zm0.0627 3.9411c0.1566 0.0188 0.3321 0.025 0.5075 0.025 0.6265 0 1.1278-0.2005 1.4661-0.5764 0.3634-0.3885 0.5514-0.9399 0.5514-1.5414 0-0.7706-0.4073-1.2907-1.3784-1.2907-0.188 0-0.3885 0.0125-0.5138 0.0439l-0.6328 3.3396z"/>
  <path d="m52.94 37.172c0-0.2005 0.025-0.4699 0.0564-0.7519h-0.0126c-0.332 0.6141-0.7769 0.8271-1.203 0.8271-0.6015 0-0.9899-0.4699-0.9899-1.1466 0-1.1466 0.802-2.3622 2.3621-2.3622 0.3634 0 0.7582 0.069 1.0213 0.1504l-0.3509 1.7481c-0.0939 0.495-0.1503 1.1279-0.1378 1.5289h-0.7456v0.0062zm0.3258-2.7757c-0.0815-0.0188-0.188-0.0313-0.3321-0.0313-0.7393 0-1.3158 0.8333-1.3158 1.5978 0 0.3508 0.1316 0.639 0.4825 0.639 0.3822 0 0.8333-0.4699 0.99-1.322l0.1754-0.8835z"/>
  <path d="m54.45 37.172 0.9274-4.8935h0.802l-0.3948 2.0426h0.0126c0.2819-0.3508 0.6579-0.5764 1.1216-0.5764 0.4636 0 0.8396 0.282 0.8396 0.9023 0 0.1754-0.0251 0.4072-0.0627 0.5889l-0.3634 1.9424h-0.802l0.3571-1.8797c0.0188-0.1316 0.0439-0.2757 0.0439-0.4386 0-0.2569-0.1191-0.4574-0.4198-0.4574-0.3885 0-0.8334 0.4699-0.965 1.1779l-0.3007 1.5978h-0.7958v-0.0063z"/>
  <path d="m60.453 37.172c0-0.2005 0.0251-0.4699 0.0564-0.7519h-0.0125c-0.3321 0.6141-0.777 0.8271-1.2031 0.8271-0.6015 0-0.9899-0.4699-0.9899-1.1466 0-1.1466 0.802-2.3622 2.3622-2.3622 0.3634 0 0.7581 0.069 1.0213 0.1504l-0.3509 1.7481c-0.094 0.495-0.1504 1.1279-0.1379 1.5289h-0.7456v0.0062zm0.3258-2.7757c-0.0814-0.0188-0.1879-0.0313-0.332-0.0313-0.7394 0-1.3159 0.8333-1.3159 1.5978 0 0.3508 0.1316 0.639 0.4825 0.639 0.3822 0 0.8334-0.4699 0.99-1.322l0.1754-0.8835z"/>
  <path d="m63.68 32.279-0.4135 2.0238 0.0125 0.0063c0.2694-0.3634 0.6642-0.5702 1.0965-0.5702 0.7143 0 1.0151 0.589 1.0151 1.1842 0 1.0589-0.7331 2.3246-2.1554 2.3246-0.7018 0-1.1216-0.2945-1.1216-0.9022 0-0.188 0.025-0.3948 0.0689-0.5765l0.6955-3.49h0.802zm-0.7017 3.5276c-0.0251 0.1191-0.0502 0.2444-0.0439 0.401 0.0063 0.2757 0.1629 0.4261 0.4511 0.4261 0.7018 0 1.1655-0.9023 1.1655-1.5664 0-0.3634-0.1567-0.6767-0.5326-0.6767-0.4136 0-0.8396 0.426-0.9775 1.1027l-0.0626 0.3133z"/>
  <path d="m65.804 36.427c0.1754 0.094 0.5012 0.2193 0.8083 0.2193 0.3258 0 0.5138-0.188 0.5138-0.4136 0-0.2067-0.1128-0.3446-0.4386-0.5137-0.3885-0.2068-0.6642-0.4887-0.6642-0.8772 0-0.6454 0.5639-1.1028 1.3597-1.1028 0.3509 0 0.6391 0.0815 0.7832 0.1755l-0.2005 0.5764c-0.1316-0.0689-0.3509-0.1504-0.6266-0.1504-0.3008 0-0.5075 0.1567-0.5075 0.3885 0 0.1942 0.1441 0.3258 0.4323 0.4699 0.3697 0.2005 0.6955 0.4762 0.6955 0.9023 0 0.7456-0.6203 1.1591-1.4286 1.1528-0.3947-0.0062-0.7582-0.119-0.9399-0.2506l0.2131-0.5764z"/>
  <path d="m68.461 37.172 0.9273-4.8935h0.802l-0.3948 2.0426h0.0126c0.2819-0.3508 0.6578-0.5764 1.1215-0.5764 0.4636 0 0.8396 0.282 0.8396 0.9023 0 0.1754-0.0251 0.4072-0.0627 0.5889l-0.3634 1.9424h-0.802l0.3572-1.8797c0.0187-0.1316 0.0438-0.2757 0.0438-0.4386 0-0.2569-0.119-0.4574-0.4198-0.4574-0.3884 0-0.8333 0.4699-0.9649 1.1779l-0.3007 1.5978h-0.7957v-0.0063z"/>
  <path d="m72.245 37.172 0.6391-3.3583h0.802l-0.6391 3.3583h-0.802zm0.7707-4.2669c0-0.2819 0.2193-0.4824 0.4824-0.4824 0.2569 0 0.4261 0.1754 0.4261 0.426-0.0063 0.2945-0.2256 0.4825-0.5013 0.4825-0.2443 0-0.4072-0.1692-0.4072-0.4261z"/>
  <path d="m73.962 37.172 0.9273-4.8935h0.8083l-0.9399 4.8935h-0.7957z"/>
  <path d="m75.102 38.006c0.2631-0.5264 0.5701-1.2469 0.7393-1.8171l0.896-0.0689c-0.282 0.6454-0.708 1.391-1.0401 1.8358l-0.5952 0.0502z"/>
  <path d="m80.19 32.53-0.8835 4.6428h-0.802l0.8835-4.6428h0.802z"/>
  <path d="m80.259 37.172 0.4323-2.3183c0.0815-0.401 0.1316-0.7519 0.1755-1.0401h0.7142l-0.0751 0.6015h0.0125c0.3133-0.4511 0.7393-0.6767 1.203-0.6767 0.4824 0 0.8521 0.2883 0.8521 0.9211 0 0.1504-0.025 0.3885-0.0626 0.5514l-0.3634 1.9549h-0.8083l0.3571-1.8923c0.0188-0.1253 0.0439-0.2694 0.0439-0.401 0-0.2819-0.1065-0.4824-0.4198-0.4824-0.3634 0-0.8333 0.4386-0.9775 1.228l-0.2882 1.5539h-0.7957z"/>
  <path d="m86.443 37.047c-0.2005 0.094-0.5389 0.1943-0.9649 0.1943-0.8396 0-1.3597-0.5389-1.3597-1.3346 0-1.1717 0.8897-2.1554 2.1303-2.1554 0.2945 0 0.5577 0.0689 0.6893 0.1253l-0.2068 0.6266c-0.1253-0.0564-0.282-0.1066-0.5075-0.1066-0.7707 0-1.2594 0.7081-1.2594 1.4098 0 0.5013 0.2882 0.7832 0.7393 0.7832 0.307 0 0.5451-0.0814 0.708-0.1566l0.0314 0.614z"/>
  <path d="m86.944 36.746c0-0.3258 0.2318-0.5953 0.5639-0.5953 0.2882 0 0.4887 0.2131 0.4887 0.5076 0 0.332-0.2381 0.5764-0.5764 0.5764-0.2882 0.0063-0.4762-0.2068-0.4762-0.4887z"/>
 </g>
</svg>
