<svg width="310" height="310" viewBox="0 0 310 310" fill="none" xmlns="http://www.w3.org/2000/svg">
<circle cx="155" cy="155" r="155" fill="#E7E7E7"/>
<path d="M119.818 191V167.727H122.636V188.5H133.455V191H119.818ZM144.545 191.364C142.97 191.364 141.587 190.989 140.398 190.239C139.216 189.489 138.292 188.439 137.625 187.091C136.966 185.742 136.636 184.167 136.636 182.364C136.636 180.545 136.966 178.958 137.625 177.602C138.292 176.246 139.216 175.193 140.398 174.443C141.587 173.693 142.97 173.318 144.545 173.318C146.121 173.318 147.5 173.693 148.682 174.443C149.871 175.193 150.795 176.246 151.455 177.602C152.121 178.958 152.455 180.545 152.455 182.364C152.455 184.167 152.121 185.742 151.455 187.091C150.795 188.439 149.871 189.489 148.682 190.239C147.5 190.989 146.121 191.364 144.545 191.364ZM144.545 188.955C145.742 188.955 146.727 188.648 147.5 188.034C148.273 187.42 148.845 186.614 149.216 185.614C149.587 184.614 149.773 183.53 149.773 182.364C149.773 181.197 149.587 180.11 149.216 179.102C148.845 178.095 148.273 177.28 147.5 176.659C146.727 176.038 145.742 175.727 144.545 175.727C143.348 175.727 142.364 176.038 141.591 176.659C140.818 177.28 140.246 178.095 139.875 179.102C139.504 180.11 139.318 181.197 139.318 182.364C139.318 183.53 139.504 184.614 139.875 185.614C140.246 186.614 140.818 187.42 141.591 188.034C142.364 188.648 143.348 188.955 144.545 188.955ZM163.594 197.909C162.298 197.909 161.185 197.742 160.253 197.409C159.321 197.083 158.545 196.652 157.923 196.114C157.31 195.583 156.821 195.015 156.457 194.409L158.594 192.909C158.836 193.227 159.143 193.591 159.514 194C159.885 194.417 160.393 194.777 161.037 195.08C161.688 195.39 162.541 195.545 163.594 195.545C165.003 195.545 166.166 195.205 167.082 194.523C167.999 193.841 168.457 192.773 168.457 191.318V187.773H168.23C168.033 188.091 167.753 188.485 167.389 188.955C167.033 189.417 166.518 189.83 165.844 190.193C165.177 190.549 164.276 190.727 163.139 190.727C161.73 190.727 160.465 190.394 159.344 189.727C158.23 189.061 157.348 188.091 156.696 186.818C156.052 185.545 155.73 184 155.73 182.182C155.73 180.394 156.045 178.837 156.673 177.511C157.302 176.178 158.177 175.148 159.298 174.42C160.42 173.686 161.715 173.318 163.185 173.318C164.321 173.318 165.223 173.508 165.889 173.886C166.563 174.258 167.079 174.682 167.435 175.159C167.798 175.629 168.079 176.015 168.276 176.318H168.548V173.545H171.139V191.5C171.139 193 170.798 194.22 170.116 195.159C169.442 196.106 168.533 196.799 167.389 197.239C166.253 197.686 164.988 197.909 163.594 197.909ZM163.503 188.318C164.579 188.318 165.488 188.072 166.23 187.58C166.973 187.087 167.537 186.379 167.923 185.455C168.31 184.53 168.503 183.424 168.503 182.136C168.503 180.879 168.313 179.769 167.935 178.807C167.556 177.845 166.995 177.091 166.253 176.545C165.51 176 164.594 175.727 163.503 175.727C162.366 175.727 161.42 176.015 160.662 176.591C159.912 177.167 159.348 177.939 158.969 178.909C158.598 179.879 158.412 180.955 158.412 182.136C158.412 183.348 158.601 184.42 158.98 185.352C159.366 186.277 159.935 187.004 160.685 187.534C161.442 188.057 162.382 188.318 163.503 188.318ZM183.139 191.364C181.563 191.364 180.181 190.989 178.991 190.239C177.81 189.489 176.885 188.439 176.219 187.091C175.56 185.742 175.23 184.167 175.23 182.364C175.23 180.545 175.56 178.958 176.219 177.602C176.885 176.246 177.81 175.193 178.991 174.443C180.181 173.693 181.563 173.318 183.139 173.318C184.715 173.318 186.094 173.693 187.276 174.443C188.465 175.193 189.389 176.246 190.048 177.602C190.715 178.958 191.048 180.545 191.048 182.364C191.048 184.167 190.715 185.742 190.048 187.091C189.389 188.439 188.465 189.489 187.276 190.239C186.094 190.989 184.715 191.364 183.139 191.364ZM183.139 188.955C184.336 188.955 185.321 188.648 186.094 188.034C186.866 187.42 187.438 186.614 187.81 185.614C188.181 184.614 188.366 183.53 188.366 182.364C188.366 181.197 188.181 180.11 187.81 179.102C187.438 178.095 186.866 177.28 186.094 176.659C185.321 176.038 184.336 175.727 183.139 175.727C181.942 175.727 180.957 176.038 180.185 176.659C179.412 177.28 178.84 178.095 178.469 179.102C178.098 180.11 177.912 181.197 177.912 182.364C177.912 183.53 178.098 184.614 178.469 185.614C178.84 186.614 179.412 187.42 180.185 188.034C180.957 188.648 181.942 188.955 183.139 188.955Z" fill="black"/>
<path d="M96.5455 139.545C96.4091 138.394 95.8561 137.5 94.8864 136.864C93.9167 136.227 92.7273 135.909 91.3182 135.909C90.2879 135.909 89.3864 136.076 88.6136 136.409C87.8485 136.742 87.25 137.201 86.8182 137.784C86.3939 138.367 86.1818 139.03 86.1818 139.773C86.1818 140.394 86.3295 140.928 86.625 141.375C86.928 141.814 87.3144 142.182 87.7841 142.477C88.2538 142.765 88.7462 143.004 89.2614 143.193C89.7765 143.375 90.25 143.523 90.6818 143.636L93.0455 144.273C93.6515 144.432 94.3258 144.652 95.0682 144.932C95.8182 145.212 96.5341 145.595 97.2159 146.08C97.9053 146.557 98.4735 147.17 98.9205 147.92C99.3674 148.67 99.5909 149.591 99.5909 150.682C99.5909 151.939 99.2614 153.076 98.6023 154.091C97.9508 155.106 96.9962 155.913 95.7386 156.511C94.4886 157.11 92.9697 157.409 91.1818 157.409C89.5152 157.409 88.072 157.14 86.8523 156.602C85.6402 156.064 84.6856 155.314 83.9886 154.352C83.2992 153.39 82.9091 152.273 82.8182 151H85.7273C85.803 151.879 86.0985 152.606 86.6136 153.182C87.1364 153.75 87.7955 154.174 88.5909 154.455C89.3939 154.727 90.2576 154.864 91.1818 154.864C92.2576 154.864 93.2235 154.689 94.0795 154.341C94.9356 153.985 95.6136 153.492 96.1136 152.864C96.6136 152.227 96.8636 151.485 96.8636 150.636C96.8636 149.864 96.6477 149.235 96.2159 148.75C95.7841 148.265 95.2159 147.871 94.5114 147.568C93.8068 147.265 93.0455 147 92.2273 146.773L89.3636 145.955C87.5455 145.432 86.1061 144.686 85.0455 143.716C83.9848 142.746 83.4545 141.477 83.4545 139.909C83.4545 138.606 83.8068 137.47 84.5114 136.5C85.2235 135.523 86.178 134.765 87.375 134.227C88.5795 133.682 89.9242 133.409 91.4091 133.409C92.9091 133.409 94.2424 133.678 95.4091 134.216C96.5758 134.746 97.5 135.473 98.1818 136.398C98.8712 137.322 99.2348 138.371 99.2727 139.545H96.5455ZM103.861 163.545V139.545H106.452V142.318H106.77C106.967 142.015 107.24 141.629 107.588 141.159C107.944 140.682 108.452 140.258 109.111 139.886C109.777 139.508 110.679 139.318 111.815 139.318C113.285 139.318 114.58 139.686 115.702 140.42C116.823 141.155 117.698 142.197 118.327 143.545C118.955 144.894 119.27 146.485 119.27 148.318C119.27 150.167 118.955 151.769 118.327 153.125C117.698 154.473 116.827 155.519 115.713 156.261C114.599 156.996 113.315 157.364 111.861 157.364C110.74 157.364 109.842 157.178 109.168 156.807C108.493 156.428 107.974 156 107.611 155.523C107.247 155.038 106.967 154.636 106.77 154.318H106.543V163.545H103.861ZM106.497 148.273C106.497 149.591 106.69 150.754 107.077 151.761C107.463 152.761 108.027 153.545 108.77 154.114C109.512 154.674 110.421 154.955 111.497 154.955C112.618 154.955 113.554 154.659 114.304 154.068C115.062 153.47 115.63 152.667 116.009 151.659C116.395 150.644 116.588 149.515 116.588 148.273C116.588 147.045 116.399 145.939 116.02 144.955C115.649 143.962 115.084 143.178 114.327 142.602C113.577 142.019 112.634 141.727 111.497 141.727C110.406 141.727 109.49 142.004 108.747 142.557C108.005 143.102 107.444 143.867 107.065 144.852C106.687 145.83 106.497 146.97 106.497 148.273ZM130.452 157.364C128.876 157.364 127.493 156.989 126.304 156.239C125.122 155.489 124.198 154.439 123.531 153.091C122.872 151.742 122.543 150.167 122.543 148.364C122.543 146.545 122.872 144.958 123.531 143.602C124.198 142.246 125.122 141.193 126.304 140.443C127.493 139.693 128.876 139.318 130.452 139.318C132.027 139.318 133.406 139.693 134.588 140.443C135.777 141.193 136.702 142.246 137.361 143.602C138.027 144.958 138.361 146.545 138.361 148.364C138.361 150.167 138.027 151.742 137.361 153.091C136.702 154.439 135.777 155.489 134.588 156.239C133.406 156.989 132.027 157.364 130.452 157.364ZM130.452 154.955C131.649 154.955 132.634 154.648 133.406 154.034C134.179 153.42 134.751 152.614 135.122 151.614C135.493 150.614 135.679 149.53 135.679 148.364C135.679 147.197 135.493 146.11 135.122 145.102C134.751 144.095 134.179 143.28 133.406 142.659C132.634 142.038 131.649 141.727 130.452 141.727C129.255 141.727 128.27 142.038 127.497 142.659C126.724 143.28 126.152 144.095 125.781 145.102C125.41 146.11 125.224 147.197 125.224 148.364C125.224 149.53 125.41 150.614 125.781 151.614C126.152 152.614 126.724 153.42 127.497 154.034C128.27 154.648 129.255 154.955 130.452 154.955ZM145.136 146.5V157H142.455V139.545H145.045V142.273H145.273C145.682 141.386 146.303 140.674 147.136 140.136C147.97 139.591 149.045 139.318 150.364 139.318C151.545 139.318 152.58 139.561 153.466 140.045C154.352 140.523 155.042 141.25 155.534 142.227C156.027 143.197 156.273 144.424 156.273 145.909V157H153.591V146.091C153.591 144.72 153.235 143.652 152.523 142.886C151.811 142.114 150.833 141.727 149.591 141.727C148.735 141.727 147.97 141.913 147.295 142.284C146.629 142.655 146.102 143.197 145.716 143.909C145.33 144.621 145.136 145.485 145.136 146.5ZM173.537 143.455L171.128 144.136C170.976 143.735 170.753 143.345 170.457 142.966C170.17 142.58 169.776 142.261 169.276 142.011C168.776 141.761 168.135 141.636 167.355 141.636C166.287 141.636 165.397 141.883 164.685 142.375C163.98 142.86 163.628 143.477 163.628 144.227C163.628 144.894 163.87 145.42 164.355 145.807C164.84 146.193 165.598 146.515 166.628 146.773L169.219 147.409C170.779 147.788 171.942 148.367 172.707 149.148C173.473 149.92 173.855 150.917 173.855 152.136C173.855 153.136 173.567 154.03 172.991 154.818C172.423 155.606 171.628 156.227 170.605 156.682C169.582 157.136 168.393 157.364 167.037 157.364C165.257 157.364 163.783 156.977 162.616 156.205C161.45 155.432 160.711 154.303 160.401 152.818L162.946 152.182C163.188 153.121 163.647 153.826 164.321 154.295C165.003 154.765 165.893 155 166.991 155C168.241 155 169.234 154.735 169.969 154.205C170.711 153.667 171.082 153.023 171.082 152.273C171.082 151.667 170.87 151.159 170.446 150.75C170.022 150.333 169.37 150.023 168.491 149.818L165.582 149.136C163.984 148.758 162.81 148.17 162.06 147.375C161.317 146.572 160.946 145.568 160.946 144.364C160.946 143.379 161.223 142.508 161.776 141.75C162.336 140.992 163.098 140.398 164.06 139.966C165.029 139.534 166.128 139.318 167.355 139.318C169.082 139.318 170.438 139.697 171.423 140.455C172.416 141.212 173.12 142.212 173.537 143.455ZM185.21 157.364C183.528 157.364 182.078 156.992 180.858 156.25C179.646 155.5 178.71 154.455 178.051 153.114C177.4 151.765 177.074 150.197 177.074 148.409C177.074 146.621 177.4 145.045 178.051 143.682C178.71 142.311 179.627 141.242 180.801 140.477C181.983 139.705 183.362 139.318 184.938 139.318C185.847 139.318 186.744 139.47 187.631 139.773C188.517 140.076 189.324 140.568 190.051 141.25C190.778 141.924 191.358 142.818 191.79 143.932C192.222 145.045 192.438 146.417 192.438 148.045V149.182H178.983V146.864H189.71C189.71 145.879 189.513 145 189.119 144.227C188.733 143.455 188.18 142.845 187.46 142.398C186.748 141.951 185.907 141.727 184.938 141.727C183.869 141.727 182.945 141.992 182.165 142.523C181.392 143.045 180.797 143.727 180.381 144.568C179.964 145.409 179.756 146.311 179.756 147.273V148.818C179.756 150.136 179.983 151.254 180.438 152.17C180.9 153.08 181.54 153.773 182.358 154.25C183.176 154.72 184.127 154.955 185.21 154.955C185.915 154.955 186.551 154.856 187.119 154.659C187.695 154.455 188.191 154.152 188.608 153.75C189.025 153.341 189.347 152.833 189.574 152.227L192.165 152.955C191.892 153.833 191.434 154.606 190.79 155.273C190.146 155.932 189.35 156.447 188.403 156.818C187.456 157.182 186.392 157.364 185.21 157.364ZM196.517 157V139.545H199.108V142.182H199.29C199.608 141.318 200.184 140.617 201.017 140.08C201.85 139.542 202.79 139.273 203.835 139.273C204.032 139.273 204.278 139.277 204.574 139.284C204.869 139.292 205.093 139.303 205.244 139.318V142.045C205.153 142.023 204.945 141.989 204.619 141.943C204.301 141.89 203.964 141.864 203.608 141.864C202.759 141.864 202.002 142.042 201.335 142.398C200.676 142.746 200.153 143.231 199.767 143.852C199.388 144.466 199.199 145.167 199.199 145.955V157H196.517ZM217.378 157V154.955L225.06 146.545C225.961 145.561 226.704 144.705 227.287 143.977C227.87 143.242 228.302 142.553 228.582 141.909C228.87 141.258 229.014 140.576 229.014 139.864C229.014 139.045 228.817 138.337 228.423 137.739C228.037 137.14 227.507 136.678 226.832 136.352C226.158 136.027 225.401 135.864 224.56 135.864C223.666 135.864 222.885 136.049 222.219 136.42C221.56 136.784 221.048 137.295 220.685 137.955C220.329 138.614 220.151 139.386 220.151 140.273H217.469C217.469 138.909 217.783 137.712 218.412 136.682C219.041 135.652 219.897 134.848 220.98 134.273C222.071 133.697 223.295 133.409 224.651 133.409C226.014 133.409 227.223 133.697 228.276 134.273C229.329 134.848 230.154 135.625 230.753 136.602C231.351 137.58 231.651 138.667 231.651 139.864C231.651 140.72 231.495 141.557 231.185 142.375C230.882 143.186 230.351 144.091 229.594 145.091C228.844 146.083 227.802 147.295 226.469 148.727L221.241 154.318V154.5H232.06V157H217.378Z" fill="#7B2CBF"/>
</svg>
