<svg width="310" height="310" viewBox="0 0 310 310" fill="none" xmlns="http://www.w3.org/2000/svg">
<circle cx="155" cy="155" r="155" fill="#E7E7E7"/>
<path d="M92.5455 137.545C92.4091 136.394 91.8561 135.5 90.8864 134.864C89.9167 134.227 88.7273 133.909 87.3182 133.909C86.2879 133.909 85.3864 134.076 84.6136 134.409C83.8485 134.742 83.25 135.201 82.8182 135.784C82.3939 136.367 82.1818 137.03 82.1818 137.773C82.1818 138.394 82.3295 138.928 82.625 139.375C82.928 139.814 83.3144 140.182 83.7841 140.477C84.2538 140.765 84.7462 141.004 85.2614 141.193C85.7765 141.375 86.25 141.523 86.6818 141.636L89.0455 142.273C89.6515 142.432 90.3258 142.652 91.0682 142.932C91.8182 143.212 92.5341 143.595 93.2159 144.08C93.9053 144.557 94.4735 145.17 94.9205 145.92C95.3674 146.67 95.5909 147.591 95.5909 148.682C95.5909 149.939 95.2614 151.076 94.6023 152.091C93.9508 153.106 92.9962 153.913 91.7386 154.511C90.4886 155.11 88.9697 155.409 87.1818 155.409C85.5152 155.409 84.072 155.14 82.8523 154.602C81.6402 154.064 80.6856 153.314 79.9886 152.352C79.2992 151.39 78.9091 150.273 78.8182 149H81.7273C81.803 149.879 82.0985 150.606 82.6136 151.182C83.1364 151.75 83.7955 152.174 84.5909 152.455C85.3939 152.727 86.2576 152.864 87.1818 152.864C88.2576 152.864 89.2235 152.689 90.0795 152.341C90.9356 151.985 91.6136 151.492 92.1136 150.864C92.6136 150.227 92.8636 149.485 92.8636 148.636C92.8636 147.864 92.6477 147.235 92.2159 146.75C91.7841 146.265 91.2159 145.871 90.5114 145.568C89.8068 145.265 89.0455 145 88.2273 144.773L85.3636 143.955C83.5455 143.432 82.1061 142.686 81.0455 141.716C79.9848 140.746 79.4545 139.477 79.4545 137.909C79.4545 136.606 79.8068 135.47 80.5114 134.5C81.2235 133.523 82.178 132.765 83.375 132.227C84.5795 131.682 85.9242 131.409 87.4091 131.409C88.9091 131.409 90.2424 131.678 91.4091 132.216C92.5758 132.746 93.5 133.473 94.1818 134.398C94.8712 135.322 95.2348 136.371 95.2727 137.545H92.5455ZM99.8608 161.545V137.545H102.452V140.318H102.77C102.967 140.015 103.24 139.629 103.588 139.159C103.944 138.682 104.452 138.258 105.111 137.886C105.777 137.508 106.679 137.318 107.815 137.318C109.285 137.318 110.58 137.686 111.702 138.42C112.823 139.155 113.698 140.197 114.327 141.545C114.955 142.894 115.27 144.485 115.27 146.318C115.27 148.167 114.955 149.769 114.327 151.125C113.698 152.473 112.827 153.519 111.713 154.261C110.599 154.996 109.315 155.364 107.861 155.364C106.74 155.364 105.842 155.178 105.168 154.807C104.493 154.428 103.974 154 103.611 153.523C103.247 153.038 102.967 152.636 102.77 152.318H102.543V161.545H99.8608ZM102.497 146.273C102.497 147.591 102.69 148.754 103.077 149.761C103.463 150.761 104.027 151.545 104.77 152.114C105.512 152.674 106.421 152.955 107.497 152.955C108.618 152.955 109.554 152.659 110.304 152.068C111.062 151.47 111.63 150.667 112.009 149.659C112.395 148.644 112.588 147.515 112.588 146.273C112.588 145.045 112.399 143.939 112.02 142.955C111.649 141.962 111.084 141.178 110.327 140.602C109.577 140.019 108.634 139.727 107.497 139.727C106.406 139.727 105.49 140.004 104.747 140.557C104.005 141.102 103.444 141.867 103.065 142.852C102.687 143.83 102.497 144.97 102.497 146.273ZM126.452 155.364C124.876 155.364 123.493 154.989 122.304 154.239C121.122 153.489 120.198 152.439 119.531 151.091C118.872 149.742 118.543 148.167 118.543 146.364C118.543 144.545 118.872 142.958 119.531 141.602C120.198 140.246 121.122 139.193 122.304 138.443C123.493 137.693 124.876 137.318 126.452 137.318C128.027 137.318 129.406 137.693 130.588 138.443C131.777 139.193 132.702 140.246 133.361 141.602C134.027 142.958 134.361 144.545 134.361 146.364C134.361 148.167 134.027 149.742 133.361 151.091C132.702 152.439 131.777 153.489 130.588 154.239C129.406 154.989 128.027 155.364 126.452 155.364ZM126.452 152.955C127.649 152.955 128.634 152.648 129.406 152.034C130.179 151.42 130.751 150.614 131.122 149.614C131.493 148.614 131.679 147.53 131.679 146.364C131.679 145.197 131.493 144.11 131.122 143.102C130.751 142.095 130.179 141.28 129.406 140.659C128.634 140.038 127.649 139.727 126.452 139.727C125.255 139.727 124.27 140.038 123.497 140.659C122.724 141.28 122.152 142.095 121.781 143.102C121.41 144.11 121.224 145.197 121.224 146.364C121.224 147.53 121.41 148.614 121.781 149.614C122.152 150.614 122.724 151.42 123.497 152.034C124.27 152.648 125.255 152.955 126.452 152.955ZM141.136 144.5V155H138.455V137.545H141.045V140.273H141.273C141.682 139.386 142.303 138.674 143.136 138.136C143.97 137.591 145.045 137.318 146.364 137.318C147.545 137.318 148.58 137.561 149.466 138.045C150.352 138.523 151.042 139.25 151.534 140.227C152.027 141.197 152.273 142.424 152.273 143.909V155H149.591V144.091C149.591 142.72 149.235 141.652 148.523 140.886C147.811 140.114 146.833 139.727 145.591 139.727C144.735 139.727 143.97 139.913 143.295 140.284C142.629 140.655 142.102 141.197 141.716 141.909C141.33 142.621 141.136 143.485 141.136 144.5ZM169.537 141.455L167.128 142.136C166.976 141.735 166.753 141.345 166.457 140.966C166.17 140.58 165.776 140.261 165.276 140.011C164.776 139.761 164.135 139.636 163.355 139.636C162.287 139.636 161.397 139.883 160.685 140.375C159.98 140.86 159.628 141.477 159.628 142.227C159.628 142.894 159.87 143.42 160.355 143.807C160.84 144.193 161.598 144.515 162.628 144.773L165.219 145.409C166.779 145.788 167.942 146.367 168.707 147.148C169.473 147.92 169.855 148.917 169.855 150.136C169.855 151.136 169.567 152.03 168.991 152.818C168.423 153.606 167.628 154.227 166.605 154.682C165.582 155.136 164.393 155.364 163.037 155.364C161.257 155.364 159.783 154.977 158.616 154.205C157.45 153.432 156.711 152.303 156.401 150.818L158.946 150.182C159.188 151.121 159.647 151.826 160.321 152.295C161.003 152.765 161.893 153 162.991 153C164.241 153 165.234 152.735 165.969 152.205C166.711 151.667 167.082 151.023 167.082 150.273C167.082 149.667 166.87 149.159 166.446 148.75C166.022 148.333 165.37 148.023 164.491 147.818L161.582 147.136C159.984 146.758 158.81 146.17 158.06 145.375C157.317 144.572 156.946 143.568 156.946 142.364C156.946 141.379 157.223 140.508 157.776 139.75C158.336 138.992 159.098 138.398 160.06 137.966C161.029 137.534 162.128 137.318 163.355 137.318C165.082 137.318 166.438 137.697 167.423 138.455C168.416 139.212 169.12 140.212 169.537 141.455ZM181.21 155.364C179.528 155.364 178.078 154.992 176.858 154.25C175.646 153.5 174.71 152.455 174.051 151.114C173.4 149.765 173.074 148.197 173.074 146.409C173.074 144.621 173.4 143.045 174.051 141.682C174.71 140.311 175.627 139.242 176.801 138.477C177.983 137.705 179.362 137.318 180.938 137.318C181.847 137.318 182.744 137.47 183.631 137.773C184.517 138.076 185.324 138.568 186.051 139.25C186.778 139.924 187.358 140.818 187.79 141.932C188.222 143.045 188.438 144.417 188.438 146.045V147.182H174.983V144.864H185.71C185.71 143.879 185.513 143 185.119 142.227C184.733 141.455 184.18 140.845 183.46 140.398C182.748 139.951 181.907 139.727 180.938 139.727C179.869 139.727 178.945 139.992 178.165 140.523C177.392 141.045 176.797 141.727 176.381 142.568C175.964 143.409 175.756 144.311 175.756 145.273V146.818C175.756 148.136 175.983 149.254 176.438 150.17C176.9 151.08 177.54 151.773 178.358 152.25C179.176 152.72 180.127 152.955 181.21 152.955C181.915 152.955 182.551 152.856 183.119 152.659C183.695 152.455 184.191 152.152 184.608 151.75C185.025 151.341 185.347 150.833 185.574 150.227L188.165 150.955C187.892 151.833 187.434 152.606 186.79 153.273C186.146 153.932 185.35 154.447 184.403 154.818C183.456 155.182 182.392 155.364 181.21 155.364ZM192.517 155V137.545H195.108V140.182H195.29C195.608 139.318 196.184 138.617 197.017 138.08C197.85 137.542 198.79 137.273 199.835 137.273C200.032 137.273 200.278 137.277 200.574 137.284C200.869 137.292 201.093 137.303 201.244 137.318V140.045C201.153 140.023 200.945 139.989 200.619 139.943C200.301 139.89 199.964 139.864 199.608 139.864C198.759 139.864 198.002 140.042 197.335 140.398C196.676 140.746 196.153 141.231 195.767 141.852C195.388 142.466 195.199 143.167 195.199 143.955V155H192.517ZM221.241 155.318C219.741 155.318 218.404 155.061 217.23 154.545C216.063 154.03 215.135 153.314 214.446 152.398C213.764 151.473 213.393 150.402 213.332 149.182H216.196C216.257 149.932 216.514 150.58 216.969 151.125C217.423 151.663 218.018 152.08 218.753 152.375C219.488 152.67 220.302 152.818 221.196 152.818C222.196 152.818 223.082 152.644 223.855 152.295C224.628 151.947 225.234 151.462 225.673 150.841C226.113 150.22 226.332 149.5 226.332 148.682C226.332 147.826 226.12 147.072 225.696 146.42C225.272 145.761 224.651 145.246 223.832 144.875C223.014 144.504 222.014 144.318 220.832 144.318H218.969V141.818H220.832C221.757 141.818 222.567 141.652 223.264 141.318C223.969 140.985 224.518 140.515 224.912 139.909C225.313 139.303 225.514 138.591 225.514 137.773C225.514 136.985 225.34 136.299 224.991 135.716C224.643 135.133 224.151 134.678 223.514 134.352C222.885 134.027 222.143 133.864 221.287 133.864C220.484 133.864 219.726 134.011 219.014 134.307C218.31 134.595 217.734 135.015 217.287 135.568C216.84 136.114 216.598 136.773 216.56 137.545H213.832C213.878 136.326 214.245 135.258 214.935 134.341C215.624 133.417 216.526 132.697 217.639 132.182C218.76 131.667 219.991 131.409 221.332 131.409C222.772 131.409 224.007 131.701 225.037 132.284C226.067 132.86 226.859 133.621 227.412 134.568C227.965 135.515 228.241 136.538 228.241 137.636C228.241 138.947 227.897 140.064 227.207 140.989C226.526 141.913 225.598 142.553 224.423 142.909V143.091C225.893 143.333 227.041 143.958 227.866 144.966C228.692 145.966 229.105 147.205 229.105 148.682C229.105 149.947 228.76 151.083 228.071 152.091C227.389 153.091 226.457 153.879 225.276 154.455C224.094 155.03 222.749 155.318 221.241 155.318Z" fill="#7B2CBF"/>
<path d="M119.818 186V162.727H122.636V183.5H133.455V186H119.818ZM144.545 186.364C142.97 186.364 141.587 185.989 140.398 185.239C139.216 184.489 138.292 183.439 137.625 182.091C136.966 180.742 136.636 179.167 136.636 177.364C136.636 175.545 136.966 173.958 137.625 172.602C138.292 171.246 139.216 170.193 140.398 169.443C141.587 168.693 142.97 168.318 144.545 168.318C146.121 168.318 147.5 168.693 148.682 169.443C149.871 170.193 150.795 171.246 151.455 172.602C152.121 173.958 152.455 175.545 152.455 177.364C152.455 179.167 152.121 180.742 151.455 182.091C150.795 183.439 149.871 184.489 148.682 185.239C147.5 185.989 146.121 186.364 144.545 186.364ZM144.545 183.955C145.742 183.955 146.727 183.648 147.5 183.034C148.273 182.42 148.845 181.614 149.216 180.614C149.587 179.614 149.773 178.53 149.773 177.364C149.773 176.197 149.587 175.11 149.216 174.102C148.845 173.095 148.273 172.28 147.5 171.659C146.727 171.038 145.742 170.727 144.545 170.727C143.348 170.727 142.364 171.038 141.591 171.659C140.818 172.28 140.246 173.095 139.875 174.102C139.504 175.11 139.318 176.197 139.318 177.364C139.318 178.53 139.504 179.614 139.875 180.614C140.246 181.614 140.818 182.42 141.591 183.034C142.364 183.648 143.348 183.955 144.545 183.955ZM163.594 192.909C162.298 192.909 161.185 192.742 160.253 192.409C159.321 192.083 158.545 191.652 157.923 191.114C157.31 190.583 156.821 190.015 156.457 189.409L158.594 187.909C158.836 188.227 159.143 188.591 159.514 189C159.885 189.417 160.393 189.777 161.037 190.08C161.688 190.39 162.541 190.545 163.594 190.545C165.003 190.545 166.166 190.205 167.082 189.523C167.999 188.841 168.457 187.773 168.457 186.318V182.773H168.23C168.033 183.091 167.753 183.485 167.389 183.955C167.033 184.417 166.518 184.83 165.844 185.193C165.177 185.549 164.276 185.727 163.139 185.727C161.73 185.727 160.465 185.394 159.344 184.727C158.23 184.061 157.348 183.091 156.696 181.818C156.052 180.545 155.73 179 155.73 177.182C155.73 175.394 156.045 173.837 156.673 172.511C157.302 171.178 158.177 170.148 159.298 169.42C160.42 168.686 161.715 168.318 163.185 168.318C164.321 168.318 165.223 168.508 165.889 168.886C166.563 169.258 167.079 169.682 167.435 170.159C167.798 170.629 168.079 171.015 168.276 171.318H168.548V168.545H171.139V186.5C171.139 188 170.798 189.22 170.116 190.159C169.442 191.106 168.533 191.799 167.389 192.239C166.253 192.686 164.988 192.909 163.594 192.909ZM163.503 183.318C164.579 183.318 165.488 183.072 166.23 182.58C166.973 182.087 167.537 181.379 167.923 180.455C168.31 179.53 168.503 178.424 168.503 177.136C168.503 175.879 168.313 174.769 167.935 173.807C167.556 172.845 166.995 172.091 166.253 171.545C165.51 171 164.594 170.727 163.503 170.727C162.366 170.727 161.42 171.015 160.662 171.591C159.912 172.167 159.348 172.939 158.969 173.909C158.598 174.879 158.412 175.955 158.412 177.136C158.412 178.348 158.601 179.42 158.98 180.352C159.366 181.277 159.935 182.004 160.685 182.534C161.442 183.057 162.382 183.318 163.503 183.318ZM183.139 186.364C181.563 186.364 180.181 185.989 178.991 185.239C177.81 184.489 176.885 183.439 176.219 182.091C175.56 180.742 175.23 179.167 175.23 177.364C175.23 175.545 175.56 173.958 176.219 172.602C176.885 171.246 177.81 170.193 178.991 169.443C180.181 168.693 181.563 168.318 183.139 168.318C184.715 168.318 186.094 168.693 187.276 169.443C188.465 170.193 189.389 171.246 190.048 172.602C190.715 173.958 191.048 175.545 191.048 177.364C191.048 179.167 190.715 180.742 190.048 182.091C189.389 183.439 188.465 184.489 187.276 185.239C186.094 185.989 184.715 186.364 183.139 186.364ZM183.139 183.955C184.336 183.955 185.321 183.648 186.094 183.034C186.866 182.42 187.438 181.614 187.81 180.614C188.181 179.614 188.366 178.53 188.366 177.364C188.366 176.197 188.181 175.11 187.81 174.102C187.438 173.095 186.866 172.28 186.094 171.659C185.321 171.038 184.336 170.727 183.139 170.727C181.942 170.727 180.957 171.038 180.185 171.659C179.412 172.28 178.84 173.095 178.469 174.102C178.098 175.11 177.912 176.197 177.912 177.364C177.912 178.53 178.098 179.614 178.469 180.614C178.84 181.614 179.412 182.42 180.185 183.034C180.957 183.648 181.942 183.955 183.139 183.955Z" fill="black"/>
</svg>
