<svg width="310" height="310" viewBox="0 0 310 310" fill="none" xmlns="http://www.w3.org/2000/svg">
<circle cx="155" cy="155" r="155" fill="#E7E7E7"/>
<path d="M96.5455 137.545C96.4091 136.394 95.8561 135.5 94.8864 134.864C93.9167 134.227 92.7273 133.909 91.3182 133.909C90.2879 133.909 89.3864 134.076 88.6136 134.409C87.8485 134.742 87.25 135.201 86.8182 135.784C86.3939 136.367 86.1818 137.03 86.1818 137.773C86.1818 138.394 86.3295 138.928 86.625 139.375C86.928 139.814 87.3144 140.182 87.7841 140.477C88.2538 140.765 88.7462 141.004 89.2614 141.193C89.7765 141.375 90.25 141.523 90.6818 141.636L93.0455 142.273C93.6515 142.432 94.3258 142.652 95.0682 142.932C95.8182 143.212 96.5341 143.595 97.2159 144.08C97.9053 144.557 98.4735 145.17 98.9205 145.92C99.3674 146.67 99.5909 147.591 99.5909 148.682C99.5909 149.939 99.2614 151.076 98.6023 152.091C97.9508 153.106 96.9962 153.913 95.7386 154.511C94.4886 155.11 92.9697 155.409 91.1818 155.409C89.5152 155.409 88.072 155.14 86.8523 154.602C85.6402 154.064 84.6856 153.314 83.9886 152.352C83.2992 151.39 82.9091 150.273 82.8182 149H85.7273C85.803 149.879 86.0985 150.606 86.6136 151.182C87.1364 151.75 87.7955 152.174 88.5909 152.455C89.3939 152.727 90.2576 152.864 91.1818 152.864C92.2576 152.864 93.2235 152.689 94.0795 152.341C94.9356 151.985 95.6136 151.492 96.1136 150.864C96.6136 150.227 96.8636 149.485 96.8636 148.636C96.8636 147.864 96.6477 147.235 96.2159 146.75C95.7841 146.265 95.2159 145.871 94.5114 145.568C93.8068 145.265 93.0455 145 92.2273 144.773L89.3636 143.955C87.5455 143.432 86.1061 142.686 85.0455 141.716C83.9848 140.746 83.4545 139.477 83.4545 137.909C83.4545 136.606 83.8068 135.47 84.5114 134.5C85.2235 133.523 86.178 132.765 87.375 132.227C88.5795 131.682 89.9242 131.409 91.4091 131.409C92.9091 131.409 94.2424 131.678 95.4091 132.216C96.5758 132.746 97.5 133.473 98.1818 134.398C98.8712 135.322 99.2348 136.371 99.2727 137.545H96.5455ZM103.861 161.545V137.545H106.452V140.318H106.77C106.967 140.015 107.24 139.629 107.588 139.159C107.944 138.682 108.452 138.258 109.111 137.886C109.777 137.508 110.679 137.318 111.815 137.318C113.285 137.318 114.58 137.686 115.702 138.42C116.823 139.155 117.698 140.197 118.327 141.545C118.955 142.894 119.27 144.485 119.27 146.318C119.27 148.167 118.955 149.769 118.327 151.125C117.698 152.473 116.827 153.519 115.713 154.261C114.599 154.996 113.315 155.364 111.861 155.364C110.74 155.364 109.842 155.178 109.168 154.807C108.493 154.428 107.974 154 107.611 153.523C107.247 153.038 106.967 152.636 106.77 152.318H106.543V161.545H103.861ZM106.497 146.273C106.497 147.591 106.69 148.754 107.077 149.761C107.463 150.761 108.027 151.545 108.77 152.114C109.512 152.674 110.421 152.955 111.497 152.955C112.618 152.955 113.554 152.659 114.304 152.068C115.062 151.47 115.63 150.667 116.009 149.659C116.395 148.644 116.588 147.515 116.588 146.273C116.588 145.045 116.399 143.939 116.02 142.955C115.649 141.962 115.084 141.178 114.327 140.602C113.577 140.019 112.634 139.727 111.497 139.727C110.406 139.727 109.49 140.004 108.747 140.557C108.005 141.102 107.444 141.867 107.065 142.852C106.687 143.83 106.497 144.97 106.497 146.273ZM130.452 155.364C128.876 155.364 127.493 154.989 126.304 154.239C125.122 153.489 124.198 152.439 123.531 151.091C122.872 149.742 122.543 148.167 122.543 146.364C122.543 144.545 122.872 142.958 123.531 141.602C124.198 140.246 125.122 139.193 126.304 138.443C127.493 137.693 128.876 137.318 130.452 137.318C132.027 137.318 133.406 137.693 134.588 138.443C135.777 139.193 136.702 140.246 137.361 141.602C138.027 142.958 138.361 144.545 138.361 146.364C138.361 148.167 138.027 149.742 137.361 151.091C136.702 152.439 135.777 153.489 134.588 154.239C133.406 154.989 132.027 155.364 130.452 155.364ZM130.452 152.955C131.649 152.955 132.634 152.648 133.406 152.034C134.179 151.42 134.751 150.614 135.122 149.614C135.493 148.614 135.679 147.53 135.679 146.364C135.679 145.197 135.493 144.11 135.122 143.102C134.751 142.095 134.179 141.28 133.406 140.659C132.634 140.038 131.649 139.727 130.452 139.727C129.255 139.727 128.27 140.038 127.497 140.659C126.724 141.28 126.152 142.095 125.781 143.102C125.41 144.11 125.224 145.197 125.224 146.364C125.224 147.53 125.41 148.614 125.781 149.614C126.152 150.614 126.724 151.42 127.497 152.034C128.27 152.648 129.255 152.955 130.452 152.955ZM145.136 144.5V155H142.455V137.545H145.045V140.273H145.273C145.682 139.386 146.303 138.674 147.136 138.136C147.97 137.591 149.045 137.318 150.364 137.318C151.545 137.318 152.58 137.561 153.466 138.045C154.352 138.523 155.042 139.25 155.534 140.227C156.027 141.197 156.273 142.424 156.273 143.909V155H153.591V144.091C153.591 142.72 153.235 141.652 152.523 140.886C151.811 140.114 150.833 139.727 149.591 139.727C148.735 139.727 147.97 139.913 147.295 140.284C146.629 140.655 146.102 141.197 145.716 141.909C145.33 142.621 145.136 143.485 145.136 144.5ZM173.537 141.455L171.128 142.136C170.976 141.735 170.753 141.345 170.457 140.966C170.17 140.58 169.776 140.261 169.276 140.011C168.776 139.761 168.135 139.636 167.355 139.636C166.287 139.636 165.397 139.883 164.685 140.375C163.98 140.86 163.628 141.477 163.628 142.227C163.628 142.894 163.87 143.42 164.355 143.807C164.84 144.193 165.598 144.515 166.628 144.773L169.219 145.409C170.779 145.788 171.942 146.367 172.707 147.148C173.473 147.92 173.855 148.917 173.855 150.136C173.855 151.136 173.567 152.03 172.991 152.818C172.423 153.606 171.628 154.227 170.605 154.682C169.582 155.136 168.393 155.364 167.037 155.364C165.257 155.364 163.783 154.977 162.616 154.205C161.45 153.432 160.711 152.303 160.401 150.818L162.946 150.182C163.188 151.121 163.647 151.826 164.321 152.295C165.003 152.765 165.893 153 166.991 153C168.241 153 169.234 152.735 169.969 152.205C170.711 151.667 171.082 151.023 171.082 150.273C171.082 149.667 170.87 149.159 170.446 148.75C170.022 148.333 169.37 148.023 168.491 147.818L165.582 147.136C163.984 146.758 162.81 146.17 162.06 145.375C161.317 144.572 160.946 143.568 160.946 142.364C160.946 141.379 161.223 140.508 161.776 139.75C162.336 138.992 163.098 138.398 164.06 137.966C165.029 137.534 166.128 137.318 167.355 137.318C169.082 137.318 170.438 137.697 171.423 138.455C172.416 139.212 173.12 140.212 173.537 141.455ZM185.21 155.364C183.528 155.364 182.078 154.992 180.858 154.25C179.646 153.5 178.71 152.455 178.051 151.114C177.4 149.765 177.074 148.197 177.074 146.409C177.074 144.621 177.4 143.045 178.051 141.682C178.71 140.311 179.627 139.242 180.801 138.477C181.983 137.705 183.362 137.318 184.938 137.318C185.847 137.318 186.744 137.47 187.631 137.773C188.517 138.076 189.324 138.568 190.051 139.25C190.778 139.924 191.358 140.818 191.79 141.932C192.222 143.045 192.438 144.417 192.438 146.045V147.182H178.983V144.864H189.71C189.71 143.879 189.513 143 189.119 142.227C188.733 141.455 188.18 140.845 187.46 140.398C186.748 139.951 185.907 139.727 184.938 139.727C183.869 139.727 182.945 139.992 182.165 140.523C181.392 141.045 180.797 141.727 180.381 142.568C179.964 143.409 179.756 144.311 179.756 145.273V146.818C179.756 148.136 179.983 149.254 180.438 150.17C180.9 151.08 181.54 151.773 182.358 152.25C183.176 152.72 184.127 152.955 185.21 152.955C185.915 152.955 186.551 152.856 187.119 152.659C187.695 152.455 188.191 152.152 188.608 151.75C189.025 151.341 189.347 150.833 189.574 150.227L192.165 150.955C191.892 151.833 191.434 152.606 190.79 153.273C190.146 153.932 189.35 154.447 188.403 154.818C187.456 155.182 186.392 155.364 185.21 155.364ZM196.517 155V137.545H199.108V140.182H199.29C199.608 139.318 200.184 138.617 201.017 138.08C201.85 137.542 202.79 137.273 203.835 137.273C204.032 137.273 204.278 137.277 204.574 137.284C204.869 137.292 205.093 137.303 205.244 137.318V140.045C205.153 140.023 204.945 139.989 204.619 139.943C204.301 139.89 203.964 139.864 203.608 139.864C202.759 139.864 202.002 140.042 201.335 140.398C200.676 140.746 200.153 141.231 199.767 141.852C199.388 142.466 199.199 143.167 199.199 143.955V155H196.517ZM225.56 131.727V155H222.741V134.682H222.605L216.923 138.455V135.591L222.741 131.727H225.56Z" fill="#7B2CBF"/>
<path d="M119.818 194V170.727H122.636V191.5H133.455V194H119.818ZM144.545 194.364C142.97 194.364 141.587 193.989 140.398 193.239C139.216 192.489 138.292 191.439 137.625 190.091C136.966 188.742 136.636 187.167 136.636 185.364C136.636 183.545 136.966 181.958 137.625 180.602C138.292 179.246 139.216 178.193 140.398 177.443C141.587 176.693 142.97 176.318 144.545 176.318C146.121 176.318 147.5 176.693 148.682 177.443C149.871 178.193 150.795 179.246 151.455 180.602C152.121 181.958 152.455 183.545 152.455 185.364C152.455 187.167 152.121 188.742 151.455 190.091C150.795 191.439 149.871 192.489 148.682 193.239C147.5 193.989 146.121 194.364 144.545 194.364ZM144.545 191.955C145.742 191.955 146.727 191.648 147.5 191.034C148.273 190.42 148.845 189.614 149.216 188.614C149.587 187.614 149.773 186.53 149.773 185.364C149.773 184.197 149.587 183.11 149.216 182.102C148.845 181.095 148.273 180.28 147.5 179.659C146.727 179.038 145.742 178.727 144.545 178.727C143.348 178.727 142.364 179.038 141.591 179.659C140.818 180.28 140.246 181.095 139.875 182.102C139.504 183.11 139.318 184.197 139.318 185.364C139.318 186.53 139.504 187.614 139.875 188.614C140.246 189.614 140.818 190.42 141.591 191.034C142.364 191.648 143.348 191.955 144.545 191.955ZM163.594 200.909C162.298 200.909 161.185 200.742 160.253 200.409C159.321 200.083 158.545 199.652 157.923 199.114C157.31 198.583 156.821 198.015 156.457 197.409L158.594 195.909C158.836 196.227 159.143 196.591 159.514 197C159.885 197.417 160.393 197.777 161.037 198.08C161.688 198.39 162.541 198.545 163.594 198.545C165.003 198.545 166.166 198.205 167.082 197.523C167.999 196.841 168.457 195.773 168.457 194.318V190.773H168.23C168.033 191.091 167.753 191.485 167.389 191.955C167.033 192.417 166.518 192.83 165.844 193.193C165.177 193.549 164.276 193.727 163.139 193.727C161.73 193.727 160.465 193.394 159.344 192.727C158.23 192.061 157.348 191.091 156.696 189.818C156.052 188.545 155.73 187 155.73 185.182C155.73 183.394 156.045 181.837 156.673 180.511C157.302 179.178 158.177 178.148 159.298 177.42C160.42 176.686 161.715 176.318 163.185 176.318C164.321 176.318 165.223 176.508 165.889 176.886C166.563 177.258 167.079 177.682 167.435 178.159C167.798 178.629 168.079 179.015 168.276 179.318H168.548V176.545H171.139V194.5C171.139 196 170.798 197.22 170.116 198.159C169.442 199.106 168.533 199.799 167.389 200.239C166.253 200.686 164.988 200.909 163.594 200.909ZM163.503 191.318C164.579 191.318 165.488 191.072 166.23 190.58C166.973 190.087 167.537 189.379 167.923 188.455C168.31 187.53 168.503 186.424 168.503 185.136C168.503 183.879 168.313 182.769 167.935 181.807C167.556 180.845 166.995 180.091 166.253 179.545C165.51 179 164.594 178.727 163.503 178.727C162.366 178.727 161.42 179.015 160.662 179.591C159.912 180.167 159.348 180.939 158.969 181.909C158.598 182.879 158.412 183.955 158.412 185.136C158.412 186.348 158.601 187.42 158.98 188.352C159.366 189.277 159.935 190.004 160.685 190.534C161.442 191.057 162.382 191.318 163.503 191.318ZM183.139 194.364C181.563 194.364 180.181 193.989 178.991 193.239C177.81 192.489 176.885 191.439 176.219 190.091C175.56 188.742 175.23 187.167 175.23 185.364C175.23 183.545 175.56 181.958 176.219 180.602C176.885 179.246 177.81 178.193 178.991 177.443C180.181 176.693 181.563 176.318 183.139 176.318C184.715 176.318 186.094 176.693 187.276 177.443C188.465 178.193 189.389 179.246 190.048 180.602C190.715 181.958 191.048 183.545 191.048 185.364C191.048 187.167 190.715 188.742 190.048 190.091C189.389 191.439 188.465 192.489 187.276 193.239C186.094 193.989 184.715 194.364 183.139 194.364ZM183.139 191.955C184.336 191.955 185.321 191.648 186.094 191.034C186.866 190.42 187.438 189.614 187.81 188.614C188.181 187.614 188.366 186.53 188.366 185.364C188.366 184.197 188.181 183.11 187.81 182.102C187.438 181.095 186.866 180.28 186.094 179.659C185.321 179.038 184.336 178.727 183.139 178.727C181.942 178.727 180.957 179.038 180.185 179.659C179.412 180.28 178.84 181.095 178.469 182.102C178.098 183.11 177.912 184.197 177.912 185.364C177.912 186.53 178.098 187.614 178.469 188.614C178.84 189.614 179.412 190.42 180.185 191.034C180.957 191.648 181.942 191.955 183.139 191.955Z" fill="black"/>
</svg>
